<?xml version="1.0" standalone="no"?>
<!DOCTYPE svg PUBLIC "-//W3C//DTD SVG 20010904//EN"
 "http://www.w3.org/TR/2001/REC-SVG-20010904/DTD/svg10.dtd">
<svg version="1.0" xmlns="http://www.w3.org/2000/svg"
 width="512.000000pt" height="512.000000pt" viewBox="0 0 512.000000 512.000000"
 preserveAspectRatio="xMidYMid meet">
<metadata>
Created by potrace 1.14, written by Peter Selinger 2001-2017
</metadata>
<g transform="translate(0.000000,512.000000) scale(0.100000,-0.100000)"
fill="#000000" stroke="none">
<path d="M2410 5109 c-894 -48 -1718 -586 -2123 -1387 -193 -380 -278 -735
-278 -1162 0 -433 90 -801 287 -1180 361 -692 1037 -1193 1804 -1336 1007
-188 2035 255 2602 1121 180 274 307 585 368 902 58 300 56 696 -6 1003 -115
571 -448 1116 -906 1481 -501 400 -1106 593 -1748 558z m490 -1354 l705 -705
-805 0 -804 0 -306 305 -305 305 400 400 c220 220 402 400 405 400 3 0 322
-317 710 -705z m-568 -1358 c63 -31 107 -79 135 -148 21 -52 25 -210 5 -275
-18 -61 -72 -125 -133 -159 -47 -25 -67 -30 -150 -33 -129 -6 -194 13 -259 74
-72 67 -94 126 -94 249 0 124 22 184 95 249 67 60 121 76 244 73 86 -2 108 -6
157 -30z m-922 -194 c36 -117 68 -215 71 -218 5 -4 67 188 126 388 l15 47 99
0 c54 0 99 -2 99 -4 0 -4 -204 -555 -225 -608 -6 -16 -22 -18 -115 -18 l-107
0 -117 308 c-64 169 -116 311 -116 315 0 4 46 6 102 5 l102 -3 66 -212z m1810
142 l0 -74 -97 -3 -98 -3 -3 -237 -2 -238 -95 0 -95 0 -2 238 -3 237 -97 3
-98 3 0 74 0 75 295 0 295 0 0 -75z m620 10 l0 -65 -165 0 -165 0 0 -50 0 -50
150 0 150 0 0 -65 0 -65 -150 0 -150 0 0 -65 0 -65 170 0 170 0 0 -70 0 -70
-270 0 -270 0 0 315 0 315 265 0 265 0 0 -65z"/>
<path d="M2081 2254 c-39 -32 -55 -89 -49 -175 8 -109 51 -155 142 -151 80 3
114 55 115 175 1 119 -41 177 -130 177 -36 0 -55 -6 -78 -26z"/>
</g>
</svg>
